<svg xmlns="http://www.w3.org/2000/svg" xmlns:xlink="http://www.w3.org/1999/xlink" width="75" zoomAndPan="magnify" viewBox="0 0 75 30.000001" height="30.000001" preserveAspectRatio="xMidYMid meet" version="1.0"><defs><g><g id="id1"/></g><clipPath id="id2"><path d="M 5.808594 0.574219 L 33.390625 0.574219 L 33.390625 28.15625 L 5.808594 28.15625 Z M 5.808594 0.574219 " clip-rule="nonzero"/></clipPath><clipPath id="id3"><path d="M 15.796875 13.242188 L 23.78125 13.242188 L 23.78125 23.402344 L 15.796875 23.402344 Z M 15.796875 13.242188 " clip-rule="nonzero"/></clipPath></defs><g clip-path="url(#id2)"><path fill="rgb(25.489807%, 71.369934%, 98.039246%)" d="M 19.519531 0.574219 C 18.613281 0.589844 17.886719 1.328125 17.886719 2.230469 C 17.886719 2.238281 17.886719 2.242188 17.886719 2.246094 C 17.886719 2.375 18.007812 2.480469 18.136719 2.480469 C 18.265625 2.480469 18.347656 2.375 18.34375 2.246094 C 18.34375 2.242188 18.34375 2.238281 18.34375 2.230469 C 18.34375 1.570312 18.882812 1.035156 19.542969 1.035156 C 20.207031 1.035156 20.742188 1.570312 20.742188 2.230469 C 20.742188 2.746094 20.421875 3.183594 19.96875 3.355469 C 19.960938 3.355469 19.949219 3.359375 19.945312 3.363281 C 19.613281 3.46875 19.316406 3.714844 19.316406 4.066406 L 19.316406 4.824219 C 18.707031 4.921875 18.363281 5.328125 17.683594 5.894531 C 17.34375 6.179688 16.855469 6.472656 16.484375 6.597656 C 16.511719 6.707031 16.621094 7.121094 16.992188 7.578125 C 17.042969 7.636719 17.097656 7.699219 17.152344 7.757812 C 17.757812 7.410156 18.667969 6.890625 19.617188 6.628906 C 20.5625 6.890625 21.476562 7.410156 22.078125 7.757812 C 22.136719 7.699219 22.191406 7.636719 22.238281 7.578125 C 22.609375 7.121094 22.722656 6.707031 22.746094 6.597656 C 22.378906 6.472656 21.886719 6.179688 21.546875 5.894531 C 20.816406 5.285156 20.472656 4.867188 19.773438 4.8125 L 19.773438 4.191406 C 19.773438 4.015625 19.914062 3.859375 20.082031 3.800781 C 20.738281 3.574219 21.203125 2.953125 21.203125 2.230469 C 21.203125 1.316406 20.460938 0.574219 19.542969 0.574219 C 19.535156 0.574219 19.527344 0.574219 19.519531 0.574219 Z M 15.980469 6.636719 L 12.8125 7.445312 C 12.363281 7.558594 11.933594 7.734375 11.539062 7.972656 L 6.152344 11.191406 C 5.933594 11.320312 5.855469 11.605469 5.980469 11.828125 L 8.382812 16.203125 C 8.507812 16.429688 8.789062 16.519531 9.023438 16.410156 L 12.113281 14.976562 L 12.113281 27.699219 C 12.113281 27.949219 12.316406 28.15625 12.570312 28.15625 L 26.660156 28.15625 C 26.914062 28.15625 27.121094 27.949219 27.121094 27.699219 L 27.121094 14.976562 L 30.210938 16.410156 C 30.445312 16.519531 30.722656 16.429688 30.847656 16.203125 L 33.25 11.828125 C 33.375 11.605469 33.296875 11.320312 33.078125 11.191406 L 27.695312 7.972656 C 27.296875 7.734375 26.871094 7.558594 26.421875 7.445312 L 23.25 6.636719 C 23.25 6.636719 22.796875 9.148438 19.617188 9.148438 C 16.433594 9.148438 15.980469 6.636719 15.980469 6.636719 Z M 15.980469 6.636719 " fill-opacity="1" fill-rule="nonzero"/></g><path fill="rgb(100%, 100%, 100%)" d="M 20.042969 18.699219 C 18.503906 19.476562 17.445312 19.195312 16.941406 18.65625 C 17.515625 19.027344 18.476562 19.117188 19.777344 18.445312 C 21.042969 17.785156 22.015625 17.910156 22.636719 18.160156 C 21.660156 17.960938 21.171875 18.132812 20.042969 18.699219 " fill-opacity="1" fill-rule="nonzero"/><path fill="rgb(100%, 100%, 100%)" d="M 16.742188 19.148438 C 17.21875 19.734375 18.3125 20.078125 19.921875 19.242188 C 20.90625 18.730469 21.714844 18.695312 22.316406 18.816406 C 21.691406 18.789062 20.875 18.960938 19.972656 19.667969 C 18.828125 20.566406 17.863281 20.652344 17.230469 20.390625 C 17.828125 20.828125 19.121094 21.128906 20.484375 20.085938 C 21.414062 19.375 22.058594 18.816406 22.785156 18.957031 C 22.835938 19.160156 22.859375 19.351562 22.859375 19.523438 C 22.859375 21.171875 21.484375 22.511719 19.789062 22.511719 C 18.097656 22.511719 16.71875 21.171875 16.71875 19.523438 C 16.71875 19.390625 16.726562 19.265625 16.742188 19.148438 " fill-opacity="1" fill-rule="nonzero"/><path fill="rgb(100%, 100%, 100%)" d="M 19.089844 17.601562 C 19.089844 17.855469 19.300781 18.058594 19.5625 18.058594 C 19.820312 18.058594 20.035156 17.855469 20.035156 17.601562 C 20.035156 17.347656 19.820312 17.140625 19.5625 17.140625 C 19.300781 17.140625 19.089844 17.347656 19.089844 17.601562 " fill-opacity="1" fill-rule="nonzero"/><path fill="rgb(100%, 100%, 100%)" d="M 17.457031 18.058594 C 17.457031 18.390625 17.730469 18.65625 18.070312 18.65625 C 18.410156 18.65625 18.683594 18.390625 18.683594 18.058594 C 18.683594 17.730469 18.410156 17.464844 18.070312 17.464844 C 17.730469 17.464844 17.457031 17.730469 17.457031 18.058594 " fill-opacity="1" fill-rule="nonzero"/><g clip-path="url(#id3)"><path fill="rgb(100%, 100%, 100%)" d="M 17.390625 16.671875 C 17.433594 16.871094 17.582031 17.027344 17.777344 17.09375 C 16.957031 17.808594 16.378906 18.367188 16.378906 19.523438 C 16.378906 21.355469 17.910156 22.84375 19.789062 22.84375 C 21.671875 22.84375 23.203125 21.355469 23.203125 19.523438 C 23.203125 18.578125 22.558594 17.273438 21.339844 15.753906 C 20.875 15.175781 20.40625 14.667969 20.046875 14.296875 C 19.652344 15.226562 19.089844 15.882812 18.53125 16.414062 C 18.484375 16.21875 18.332031 16.066406 18.136719 16.007812 C 18.816406 15.355469 19.464844 14.550781 19.789062 13.242188 C 19.789062 13.242188 23.78125 16.894531 23.78125 19.523438 C 23.78125 21.667969 21.992188 23.40625 19.789062 23.40625 C 17.585938 23.40625 15.800781 21.667969 15.800781 19.523438 C 15.800781 18.125 16.535156 17.421875 17.390625 16.671875 " fill-opacity="1" fill-rule="nonzero"/></g><path fill="rgb(100%, 100%, 100%)" d="M 17.585938 16.550781 C 17.585938 16.753906 17.757812 16.917969 17.964844 16.917969 C 18.171875 16.917969 18.339844 16.753906 18.339844 16.550781 C 18.339844 16.351562 18.171875 16.1875 17.964844 16.1875 C 17.757812 16.1875 17.585938 16.351562 17.585938 16.550781 " fill-opacity="1" fill-rule="nonzero"/><g fill="rgb(0%, 29.019165%, 67.83905%)" fill-opacity="1"><g transform="translate(35.026277, 17.839736)"><g><path d="M 5.074219 -7.257812 C 5.039062 -7.304688 5.039062 -7.363281 5.027344 -7.425781 C 4.894531 -7.9375 4.429688 -8.296875 3.902344 -8.296875 C 3.761719 -8.296875 3.605469 -8.261719 3.460938 -8.175781 C 3.140625 -7.960938 2.902344 -7.6875 2.875 -7.269531 C 2.875 -7.210938 2.851562 -7.148438 2.839844 -7.078125 C 2.78125 -7.066406 2.746094 -7.054688 2.710938 -7.054688 C 2.648438 -7.054688 2.601562 -7.066406 2.554688 -7.066406 C 1.597656 -7.066406 0.96875 -6.089844 0.597656 -5.324219 C 0.144531 -4.332031 -0.0234375 -3.28125 0.0117188 -2.195312 C 0.0351562 -1.5625 0.585938 -0.464844 1.3125 -0.40625 C 1.445312 -0.394531 1.574219 -0.382812 1.695312 -0.382812 C 2.554688 -0.382812 2.9375 -0.800781 3.460938 -1.398438 C 4.429688 -2.496094 5.214844 -4.191406 5.300781 -5.671875 C 5.335938 -6.207031 5.40625 -6.769531 5.074219 -7.257812 Z M 4.75 -4.582031 C 4.65625 -4.308594 4.621094 -4.023438 4.511719 -3.761719 C 4.128906 -2.78125 3.675781 -2.171875 3.007812 -1.421875 C 2.746094 -1.144531 2.433594 -0.929688 2.078125 -0.824219 C 2.03125 -0.800781 1.96875 -0.789062 1.933594 -0.789062 C 1.839844 -0.789062 1.753906 -0.835938 1.660156 -0.917969 C 1.15625 -1.433594 1.003906 -2.042969 1.039062 -2.734375 C 1.097656 -3.535156 1.207031 -4.332031 1.539062 -5.0625 C 1.765625 -5.539062 2.003906 -6.039062 2.445312 -6.375 C 2.578125 -6.492188 2.675781 -6.660156 2.816406 -6.828125 C 3.042969 -6.480469 3.34375 -6.304688 3.617188 -6.304688 C 3.6875 -6.304688 3.761719 -6.328125 3.832031 -6.351562 C 4.128906 -6.480469 4.226562 -6.828125 4.105469 -7.414062 C 3.976562 -7.378906 3.84375 -7.339844 3.699219 -7.304688 C 3.867188 -6.949219 3.84375 -6.734375 3.59375 -6.542969 C 3.367188 -6.613281 3.269531 -6.769531 3.257812 -7.007812 C 3.246094 -7.339844 3.269531 -7.652344 3.507812 -7.925781 C 3.640625 -8.070312 3.773438 -8.128906 3.902344 -8.128906 C 4 -8.128906 4.09375 -8.09375 4.179688 -8.046875 C 4.441406 -7.914062 4.621094 -7.710938 4.703125 -7.425781 C 4.738281 -7.28125 4.796875 -7.148438 4.847656 -7.019531 C 4.894531 -6.898438 4.953125 -6.78125 4.964844 -6.660156 C 5 -5.957031 4.988281 -5.265625 4.75 -4.582031 Z M 4.75 -4.582031 "/></g></g></g><g fill="rgb(0%, 29.019165%, 67.83905%)" fill-opacity="1"><g transform="translate(40.623332, 17.839736)"><g><path d="M 3.507812 -3.710938 C 3.472656 -3.722656 3.425781 -3.75 3.390625 -3.75 C 3.367188 -3.75 3.34375 -3.734375 3.332031 -3.722656 C 3.210938 -3.628906 3.105469 -3.519531 3.007812 -3.414062 C 2.757812 -3.105469 2.460938 -2.851562 2.160156 -2.589844 C 2.148438 -2.699219 2.148438 -2.804688 2.171875 -2.902344 C 2.207031 -3.152344 2.183594 -3.378906 2.089844 -3.605469 C 2.03125 -3.761719 1.933594 -3.808594 1.777344 -3.820312 C 1.585938 -3.820312 1.457031 -3.710938 1.335938 -3.582031 C 1.109375 -3.332031 0.894531 -3.054688 0.679688 -2.792969 C 0.65625 -2.792969 0.644531 -2.792969 0.621094 -2.792969 C 0.703125 -3.042969 0.789062 -3.617188 0.8125 -3.867188 C 0.824219 -4.128906 0.667969 -4.261719 0.429688 -4.273438 C 0.203125 -4.273438 0.0820312 -4.152344 0.0351562 -3.902344 C 0 -3.664062 -0.046875 -3.4375 -0.09375 -3.199219 C -0.179688 -2.851562 -0.273438 -2.507812 -0.335938 -2.160156 C -0.359375 -2.089844 -0.324219 -1.980469 -0.273438 -1.933594 C -0.214844 -1.875 -0.09375 -1.839844 0.0351562 -1.839844 C 0.226562 -1.839844 0.441406 -1.898438 0.511719 -2.003906 C 0.753906 -2.328125 0.992188 -2.660156 1.230469 -2.984375 C 1.265625 -3.03125 1.324219 -3.054688 1.382812 -3.117188 C 1.382812 -2.972656 1.382812 -2.863281 1.382812 -2.769531 C 1.398438 -2.636719 1.421875 -2.496094 1.445312 -2.375 C 1.503906 -2.136719 1.707031 -2.113281 1.910156 -2.113281 C 2.171875 -2.113281 2.410156 -2.195312 2.589844 -2.421875 C 2.792969 -2.660156 3.019531 -2.890625 3.222656 -3.128906 C 3.332031 -3.257812 3.425781 -3.414062 3.507812 -3.558594 C 3.535156 -3.605469 3.535156 -3.699219 3.507812 -3.710938 Z M 3.507812 -3.710938 "/></g></g></g><g fill="rgb(0%, 29.019165%, 67.83905%)" fill-opacity="1"><g transform="translate(43.809715, 17.839736)"><g><path d="M 3.117188 -3.796875 C 3.03125 -3.75 2.9375 -3.6875 2.875 -3.605469 C 2.78125 -3.472656 2.699219 -3.320312 2.601562 -3.175781 C 2.230469 -2.589844 1.910156 -1.96875 1.410156 -1.480469 C 1.230469 -1.3125 1.074219 -1.132812 0.789062 -1.003906 C 0.753906 -1.359375 0.703125 -1.648438 0.714844 -1.945312 C 0.738281 -2.660156 0.96875 -3.808594 1.410156 -4.40625 C 1.550781 -4.582031 1.695312 -4.761719 1.863281 -4.929688 C 2.28125 -5.347656 2.589844 -5.835938 2.851562 -6.363281 C 3.105469 -6.839844 3.175781 -7.328125 3.128906 -7.84375 C 3.105469 -8.09375 3.03125 -8.1875 2.78125 -8.226562 C 2.6875 -8.238281 2.601562 -8.238281 2.519531 -8.238281 C 2.078125 -8.238281 1.777344 -8.070312 1.550781 -7.605469 C 1.3125 -7.113281 1.0625 -6.625 0.835938 -6.136719 C 0.394531 -5.15625 -0.308594 -2.949219 -0.335938 -1.839844 C -0.335938 -1.230469 0.0585938 -0.667969 0.714844 -0.667969 C 0.953125 -0.667969 1.183594 -0.753906 1.382812 -0.941406 C 1.789062 -1.324219 2.160156 -1.730469 2.445312 -2.195312 C 2.722656 -2.648438 3.03125 -3.105469 3.320312 -3.558594 C 3.355469 -3.605469 3.367188 -3.699219 3.34375 -3.761719 C 3.320312 -3.808594 3.28125 -3.832031 3.234375 -3.832031 C 3.1875 -3.832031 3.152344 -3.820312 3.117188 -3.796875 Z M 2.589844 -6.933594 C 2.328125 -6.289062 2.054688 -5.683594 1.550781 -5.179688 C 1.765625 -6.003906 2.230469 -6.71875 2.589844 -7.484375 C 2.648438 -7.292969 2.648438 -7.113281 2.589844 -6.933594 Z M 2.589844 -6.933594 "/></g></g></g><g fill="rgb(0%, 29.019165%, 67.83905%)" fill-opacity="1"><g transform="translate(46.685813, 17.839736)"><g><path d="M 2.589844 -3.699219 C 2.566406 -3.710938 2.542969 -3.722656 2.519531 -3.722656 C 2.472656 -3.722656 2.421875 -3.699219 2.375 -3.6875 C 2.339844 -3.675781 2.304688 -3.628906 2.28125 -3.59375 C 2.160156 -3.414062 2.066406 -3.234375 1.945312 -3.054688 C 1.742188 -2.757812 1.527344 -2.460938 1.3125 -2.160156 C 1.253906 -2.078125 1.144531 -2.003906 1.050781 -1.945312 C 1.003906 -1.921875 0.953125 -1.910156 0.894531 -1.910156 C 0.824219 -1.910156 0.753906 -1.933594 0.703125 -1.992188 C 0.644531 -2.054688 0.632812 -2.183594 0.644531 -2.28125 C 0.691406 -2.542969 0.765625 -2.804688 0.8125 -3.066406 C 0.894531 -3.425781 0.980469 -3.785156 1.039062 -4.140625 C 1.085938 -4.394531 0.980469 -4.523438 0.738281 -4.570312 C 0.667969 -4.582031 0.609375 -4.597656 0.550781 -4.597656 C 0.371094 -4.597656 0.25 -4.5 0.191406 -4.320312 C 0.132812 -4.09375 0.0703125 -3.867188 0 -3.652344 C -0.121094 -3.320312 -0.191406 -2.984375 -0.214844 -2.636719 C -0.226562 -2.375 -0.167969 -2.160156 0.0351562 -1.96875 C 0.238281 -1.765625 0.429688 -1.730469 0.703125 -1.730469 C 1.15625 -1.730469 1.371094 -1.789062 1.574219 -2.042969 C 1.945312 -2.507812 2.304688 -2.984375 2.601562 -3.507812 C 2.636719 -3.570312 2.6875 -3.664062 2.589844 -3.699219 Z M 0.644531 -5.265625 C 0.824219 -5.265625 0.992188 -5.277344 1.15625 -5.324219 C 1.277344 -5.359375 1.3125 -5.46875 1.3125 -5.597656 C 1.300781 -5.730469 1.230469 -5.777344 1.097656 -5.789062 C 1.050781 -5.789062 1.003906 -5.789062 0.992188 -5.789062 C 0.726562 -5.789062 0.5625 -5.730469 0.488281 -5.585938 C 0.382812 -5.417969 0.453125 -5.265625 0.644531 -5.265625 Z M 0.644531 -5.265625 "/></g></g></g><g fill="rgb(0%, 29.019165%, 67.83905%)" fill-opacity="1"><g transform="translate(48.953275, 17.839736)"><g><path d="M 3.507812 -3.710938 C 3.472656 -3.722656 3.425781 -3.75 3.390625 -3.75 C 3.367188 -3.75 3.34375 -3.734375 3.332031 -3.722656 C 3.210938 -3.628906 3.105469 -3.519531 3.007812 -3.414062 C 2.757812 -3.105469 2.460938 -2.851562 2.160156 -2.589844 C 2.148438 -2.699219 2.148438 -2.804688 2.171875 -2.902344 C 2.207031 -3.152344 2.183594 -3.378906 2.089844 -3.605469 C 2.03125 -3.761719 1.933594 -3.808594 1.777344 -3.820312 C 1.585938 -3.820312 1.457031 -3.710938 1.335938 -3.582031 C 1.109375 -3.332031 0.894531 -3.054688 0.679688 -2.792969 C 0.65625 -2.792969 0.644531 -2.792969 0.621094 -2.792969 C 0.703125 -3.042969 0.789062 -3.617188 0.8125 -3.867188 C 0.824219 -4.128906 0.667969 -4.261719 0.429688 -4.273438 C 0.203125 -4.273438 0.0820312 -4.152344 0.0351562 -3.902344 C 0 -3.664062 -0.046875 -3.4375 -0.09375 -3.199219 C -0.179688 -2.851562 -0.273438 -2.507812 -0.335938 -2.160156 C -0.359375 -2.089844 -0.324219 -1.980469 -0.273438 -1.933594 C -0.214844 -1.875 -0.09375 -1.839844 0.0351562 -1.839844 C 0.226562 -1.839844 0.441406 -1.898438 0.511719 -2.003906 C 0.753906 -2.328125 0.992188 -2.660156 1.230469 -2.984375 C 1.265625 -3.03125 1.324219 -3.054688 1.382812 -3.117188 C 1.382812 -2.972656 1.382812 -2.863281 1.382812 -2.769531 C 1.398438 -2.636719 1.421875 -2.496094 1.445312 -2.375 C 1.503906 -2.136719 1.707031 -2.113281 1.910156 -2.113281 C 2.171875 -2.113281 2.410156 -2.195312 2.589844 -2.421875 C 2.792969 -2.660156 3.019531 -2.890625 3.222656 -3.128906 C 3.332031 -3.257812 3.425781 -3.414062 3.507812 -3.558594 C 3.535156 -3.605469 3.535156 -3.699219 3.507812 -3.710938 Z M 3.507812 -3.710938 "/></g></g></g><g fill="rgb(0%, 29.019165%, 67.83905%)" fill-opacity="1"><g transform="translate(52.139658, 17.839736)"><g><path d="M 2.914062 -3.558594 C 2.816406 -3.402344 2.722656 -3.246094 2.589844 -3.117188 C 2.316406 -2.828125 2.015625 -2.542969 1.71875 -2.269531 C 1.550781 -2.113281 1.335938 -2.054688 1.109375 -2.03125 C 0.917969 -2.03125 0.847656 -2.066406 0.835938 -2.269531 C 0.800781 -2.648438 0.765625 -3.042969 1.167969 -3.28125 C 1.242188 -3.332031 1.300781 -3.402344 1.359375 -3.460938 C 1.730469 -3.710938 1.898438 -4.082031 1.992188 -4.488281 C 2.054688 -4.761719 1.980469 -4.882812 1.695312 -4.917969 C 1.625 -4.929688 1.550781 -4.929688 1.492188 -4.929688 C 0.464844 -4.929688 0.0351562 -3.914062 -0.15625 -3.066406 C -0.191406 -2.925781 -0.203125 -2.769531 -0.191406 -2.613281 C -0.132812 -1.945312 0.335938 -1.683594 0.941406 -1.683594 C 1.421875 -1.683594 1.839844 -1.851562 2.171875 -2.246094 C 2.339844 -2.445312 2.542969 -2.636719 2.722656 -2.839844 C 2.902344 -3.03125 3.066406 -3.246094 3.234375 -3.460938 C 3.28125 -3.535156 3.304688 -3.628906 3.355469 -3.761719 C 3.152344 -3.761719 3.019531 -3.734375 2.914062 -3.558594 Z M 1.753906 -4.644531 C 1.71875 -4.152344 1.492188 -3.773438 1.039062 -3.507812 C 1.050781 -3.558594 1.039062 -3.605469 1.0625 -3.640625 C 1.183594 -3.9375 1.300781 -4.238281 1.433594 -4.535156 C 1.480469 -4.644531 1.503906 -4.679688 1.574219 -4.679688 C 1.625 -4.679688 1.671875 -4.667969 1.753906 -4.644531 Z M 1.753906 -4.644531 "/></g></g></g><g fill="rgb(0%, 0%, 0%)" fill-opacity="1"><g transform="translate(32.564494, 23.04357)"><g><path d="M 0.40625 0 L 0.40625 -3.5 L 0.78125 -3.5 L 0.78125 -0.328125 L 2.421875 -0.328125 L 2.390625 0 Z M 0.40625 0 "/></g></g></g><g fill="rgb(0%, 0%, 0%)" fill-opacity="1"><g transform="translate(36.331369, 23.04357)"><g><path d="M 0.0625 0 L 1.515625 -3.5 L 1.84375 -3.5 L 3.25 0 L 2.859375 0 L 2.5 -0.9375 L 0.828125 -0.9375 L 0.453125 0 Z M 0.953125 -1.265625 L 2.375 -1.265625 L 1.671875 -3.03125 Z M 0.953125 -1.265625 "/></g></g></g><g fill="rgb(0%, 0%, 0%)" fill-opacity="1"><g transform="translate(41.031237, 23.04357)"><g><path d="M 2.796875 -3.5 L 3.171875 -3.5 L 3.171875 -1.6875 C 3.171875 -1.125 3.050781 -0.691406 2.8125 -0.390625 C 2.582031 -0.0976562 2.226562 0.046875 1.75 0.046875 C 1.289062 0.046875 0.945312 -0.078125 0.71875 -0.328125 C 0.5 -0.578125 0.390625 -0.96875 0.390625 -1.5 L 0.390625 -3.5 L 0.78125 -3.5 L 0.78125 -1.515625 C 0.78125 -1.097656 0.859375 -0.789062 1.015625 -0.59375 C 1.171875 -0.40625 1.414062 -0.3125 1.75 -0.3125 C 2.125 -0.3125 2.390625 -0.421875 2.546875 -0.640625 C 2.710938 -0.867188 2.796875 -1.21875 2.796875 -1.6875 Z M 2.796875 -3.5 "/></g></g></g><g fill="rgb(0%, 0%, 0%)" fill-opacity="1"><g transform="translate(45.972991, 23.04357)"><g><path d="M 2.765625 -3.5 L 3.140625 -3.5 L 3.140625 0 L 2.8125 0 L 0.765625 -2.859375 L 0.765625 0 L 0.40625 0 L 0.40625 -3.5 L 0.734375 -3.5 L 2.765625 -0.640625 Z M 2.765625 -3.5 "/></g></g></g><g fill="rgb(0%, 0%, 0%)" fill-opacity="1"><g transform="translate(50.890063, 23.04357)"><g><path d="M 0.40625 0 L 0.40625 -3.5 L 1.296875 -3.5 C 2.648438 -3.5 3.328125 -2.921875 3.328125 -1.765625 C 3.328125 -1.398438 3.25 -1.082031 3.09375 -0.8125 C 2.945312 -0.550781 2.734375 -0.347656 2.453125 -0.203125 C 2.171875 -0.0664062 1.832031 0 1.4375 0 Z M 0.78125 -0.328125 L 1.40625 -0.328125 C 1.914062 -0.328125 2.296875 -0.445312 2.546875 -0.6875 C 2.804688 -0.9375 2.9375 -1.289062 2.9375 -1.75 C 2.9375 -2.226562 2.804688 -2.582031 2.546875 -2.8125 C 2.285156 -3.050781 1.890625 -3.171875 1.359375 -3.171875 L 0.78125 -3.171875 Z M 0.78125 -0.328125 "/></g></g></g><g fill="rgb(0%, 0%, 0%)" fill-opacity="1"><g transform="translate(55.886115, 23.04357)"><g><path d="M 2.9375 -0.375 L 3.015625 -0.078125 C 2.910156 -0.00390625 2.773438 0.03125 2.609375 0.03125 C 2.472656 0.03125 2.34375 0 2.21875 -0.0625 C 2.101562 -0.132812 1.992188 -0.25 1.890625 -0.40625 L 1.234375 -1.375 C 1.191406 -1.4375 1.140625 -1.488281 1.078125 -1.53125 C 1.023438 -1.570312 0.96875 -1.59375 0.90625 -1.59375 L 0.78125 -1.59375 L 0.78125 0 L 0.40625 0 L 0.40625 -3.5 L 1.390625 -3.5 C 1.785156 -3.5 2.085938 -3.414062 2.296875 -3.25 C 2.503906 -3.082031 2.609375 -2.851562 2.609375 -2.5625 C 2.609375 -2.34375 2.554688 -2.160156 2.453125 -2.015625 C 2.347656 -1.878906 2.207031 -1.773438 2.03125 -1.703125 C 1.851562 -1.628906 1.660156 -1.59375 1.453125 -1.59375 L 1.421875 -1.59375 C 1.515625 -1.550781 1.609375 -1.457031 1.703125 -1.3125 L 2.171875 -0.640625 C 2.234375 -0.546875 2.285156 -0.472656 2.328125 -0.421875 C 2.378906 -0.378906 2.429688 -0.347656 2.484375 -0.328125 C 2.535156 -0.304688 2.597656 -0.296875 2.671875 -0.296875 C 2.722656 -0.296875 2.769531 -0.300781 2.8125 -0.3125 C 2.851562 -0.332031 2.894531 -0.351562 2.9375 -0.375 Z M 1.359375 -3.1875 L 0.78125 -3.1875 L 0.78125 -1.890625 L 1.3125 -1.890625 C 1.601562 -1.890625 1.828125 -1.941406 1.984375 -2.046875 C 2.148438 -2.148438 2.234375 -2.316406 2.234375 -2.546875 C 2.234375 -2.742188 2.160156 -2.898438 2.015625 -3.015625 C 1.878906 -3.128906 1.660156 -3.1875 1.359375 -3.1875 Z M 1.359375 -3.1875 "/></g></g></g><g fill="rgb(0%, 0%, 0%)" fill-opacity="1"><g transform="translate(60.136765, 23.04357)"><g><path d="M 2.8125 -3.5 L 1.546875 -1.578125 L 1.546875 0 L 1.171875 0 L 1.171875 -1.578125 L -0.109375 -3.5 L 0.3125 -3.5 L 1.375 -1.921875 L 2.40625 -3.5 Z M 2.8125 -3.5 "/></g></g></g></svg>